<svg xmlns="http://www.w3.org/2000/svg" xmlns:xlink="http://www.w3.org/1999/xlink" viewBox="0 0 30 30" width="30px" height="30px"><polygon style="fill:#C74343;" points="0,12 2,12 2,23 4,23 4,10 0,10 "></polygon><polygon style="fill:#C74343;" points="2,9 5,9 5,23 7,23 7,7 2,7 "></polygon><path style="fill:#C74343;" d="M11,15c0-3.309,2.691-6,6-6s6,2.691,6,6h2c0-4.411-3.589-8-8-8s-8,3.589-8,8s3.589,8,8,8h13v-2H17  C13.691,21,11,18.309,11,15z"></path><path style="fill:#C74343;" d="M17,17c-1.103,0-2-0.897-2-2s0.897-2,2-2s2,0.897,2,2h2c0-2.206-1.794-4-4-4s-4,1.794-4,4  s1.794,4,4,4h13v-2H17z"></path></svg>