<svg xmlns="http://www.w3.org/2000/svg" xmlns:xlink="http://www.w3.org/1999/xlink" x="0px" y="0px" viewBox="0 0 50 50" style="enable-background:new 0 0 50 50;" xml:space="preserve"><g id="filled"></g><g id="outlined"></g><g id="rounded"></g><g id="two_x5F_tone"></g><g id="sharp"></g><g id="win10"></g><g id="ios_x5F_out"></g><g id="ios_x5F_filled">	<path style="fill-rule:evenodd;clip-rule:evenodd;" d="M6.044,15.99H8.63v12.64c-1.401,0.265-2.433,0.369-3.549,0.369  C1.739,28.995,0,27.503,0,24.635c0-2.762,1.845-4.555,4.704-4.555c0.444,0,0.932,0.035,1.34,0.14V15.99L6.044,15.99z M6.044,22.4  c-0.32-0.105-0.735-0.14-1.073-0.14c-1.384,0-2.183,0.844-2.183,2.323c0,1.44,0.764,2.235,2.165,2.235  c0.303,0,0.699-0.017,1.09-0.069V22.4L6.044,22.4z"></path>	<path style="fill-rule:evenodd;clip-rule:evenodd;" d="M12.979,20v6.55c0,2.162-0.162,3.202-0.637,4.098  c-0.444,0.862-1.028,1.405-2.236,2.006l-2.539-1.196c1.208-0.561,1.792-1.057,2.165-1.814c0.391-0.774,0.514-1.67,0.514-4.028V20  H12.979z"></path>	<rect x="10.246" y="16.004" style="fill-rule:evenodd;clip-rule:evenodd;" width="2.736" height="2.78"></rect>	<path style="fill-rule:evenodd;clip-rule:evenodd;" d="M14.607,20.886c1.159-0.559,2.267-0.806,3.477-0.806  c1.348,0,2.233,0.368,2.625,1.088c0.22,0.403,0.291,0.928,0.291,2.05v5.483C19.825,28.875,18.341,29,17.253,29  c-2.2,0-3.186-0.789-3.186-2.54c0-1.894,1.311-2.77,4.531-3.048v-0.594c0-0.49-0.24-0.667-0.902-0.667  c-0.97,0-2.061,0.281-3.085,0.824L14.607,20.886z M18.716,25.178c-1.737,0.174-2.301,0.456-2.301,1.157  c0,0.525,0.324,0.772,1.041,0.772c0.392,0,0.75-0.035,1.26-0.122L18.716,25.178L18.716,25.178z"></path>	<path style="fill-rule:evenodd;clip-rule:evenodd;" d="M22.623,20.694c1.616-0.422,2.947-0.614,4.295-0.614  c1.401,0,2.416,0.317,3.018,0.931c0.567,0.579,0.747,1.214,0.747,2.567v5.312h-2.636v-5.204c0-1.039-0.456-1.427-1.431-1.427  c-0.374,0-0.711,0.035-1.261,0.195v6.436h-2.732V20.694z"></path>	<path style="fill-rule:evenodd;clip-rule:evenodd;" d="M31.746,30.369c0.957,0.492,1.915,0.719,2.93,0.719  c1.792,0,2.556-0.722,2.556-2.445v-0.052c-0.532,0.262-1.067,0.37-1.775,0.37c-2.398,0-3.922-1.566-3.922-4.046  c0-3.08,2.257-4.82,6.25-4.82c1.173,0,2.257,0.122,3.57,0.387l-0.937,1.953c-0.728-0.14-0.06-0.021-0.609-0.073v0.283l0.035,1.144  l0.017,1.479c0.018,0.37,0.018,0.739,0.036,1.109v0.739c0,2.323-0.198,3.412-0.782,4.311c-0.852,1.318-2.327,1.971-4.423,1.971  c-1.067,0-1.989-0.157-2.947-0.527V30.369L31.746,30.369z M37.18,22.278h-0.088h-0.198c-0.532-0.017-1.155,0.122-1.581,0.387  c-0.655,0.37-0.992,1.039-0.992,1.988c0,1.353,0.676,2.128,1.884,2.128c0.373,0,0.676-0.069,1.028-0.174V26.41v-0.739  c0-0.317-0.018-0.67-0.018-1.039l-0.017-1.249l-0.018-0.896V22.278z"></path>	<path style="fill-rule:evenodd;clip-rule:evenodd;" d="M45.566,20C48.319,20,50,21.691,50,24.431C50,27.24,48.248,29,45.456,29  C42.699,29,41,27.309,41,24.587C41.005,21.761,42.757,20,45.566,20z M45.509,26.835c1.057,0,1.681-0.854,1.681-2.338  c0-1.467-0.607-2.338-1.663-2.338c-1.093,0-1.718,0.854-1.718,2.338S44.438,26.835,45.509,26.835L45.509,26.835z"></path></g><g id="color"></g></svg>