<svg xmlns="http://www.w3.org/2000/svg" width="146" height="146" viewBox="0 0 146 146" fill="none"><circle cx="73" cy="73" r="54.5" stroke="url(#paint0_linear_63_3042)" stroke-opacity="0.6"></circle><circle cx="73" cy="73" r="72.5" stroke="url(#paint1_linear_63_3042)" stroke-opacity="0.6"></circle><circle cx="73" cy="73" r="36.5" stroke="url(#paint2_linear_63_3042)" stroke-opacity="0.4"></circle><path d="M75.8333 84.3333H60.9583C60.3947 84.3333 59.8542 84.1094 59.4557 83.7109C59.0571 83.3124 58.8333 82.7719 58.8333 82.2083V63.7917C58.8333 63.2281 59.0571 62.6876 59.4557 62.2891C59.8542 61.8905 60.3947 61.6667 60.9583 61.6667H85.0416C85.6052 61.6667 86.1457 61.8905 86.5442 62.2891C86.9427 62.6876 87.1666 63.2281 87.1666 63.7917V72.3334M83.6249 85.0417V76.5417M83.6249 76.5417L80.0833 80.0833M83.6249 76.5417L87.1666 80.0833" stroke="white" stroke-opacity="0.8" stroke-width="2" stroke-linecap="round" stroke-linejoin="round"></path><path d="M58.8333 63.7917C58.8333 63.2281 59.0571 62.6876 59.4557 62.2891C59.8542 61.8905 60.3947 61.6667 60.9583 61.6667H85.0416C85.6052 61.6667 86.1457 61.8905 86.5442 62.2891C86.9427 62.6876 87.1666 63.2281 87.1666 63.7917V70.1667H58.8333V63.7917Z" stroke="white" stroke-opacity="0.8" stroke-width="2"></path><path d="M61.6667 65.9166C61.6667 65.1342 62.3009 64.5 63.0833 64.5C63.8657 64.5 64.5 65.1342 64.5 65.9166C64.5 66.699 63.8657 67.3333 63.0833 67.3333C62.3009 67.3333 61.6667 66.699 61.6667 65.9166Z" fill="white" fill-opacity="0.8"></path><path d="M65.9167 65.9166C65.9167 65.1342 66.5509 64.5 67.3333 64.5C68.1157 64.5 68.75 65.1342 68.75 65.9166C68.75 66.699 68.1157 67.3333 67.3333 67.3333C66.5509 67.3333 65.9167 66.699 65.9167 65.9166Z" fill="white" fill-opacity="0.8"></path><defs><linearGradient id="paint0_linear_63_3042" x1="73" y1="18" x2="73" y2="102.73" gradientUnits="userSpaceOnUse"><stop stop-color="white" stop-opacity="0.6"></stop><stop offset="1" stop-color="white" stop-opacity="0"></stop></linearGradient><linearGradient id="paint1_linear_63_3042" x1="73" y1="0" x2="73" y2="112.459" gradientUnits="userSpaceOnUse"><stop stop-color="white" stop-opacity="0.6"></stop><stop offset="1" stop-color="white" stop-opacity="0"></stop></linearGradient><linearGradient id="paint2_linear_63_3042" x1="73" y1="36" x2="73" y2="93" gradientUnits="userSpaceOnUse"><stop stop-color="white" stop-opacity="0.6"></stop><stop offset="1" stop-color="white" stop-opacity="0"></stop></linearGradient></defs></svg>