<svg xmlns="http://www.w3.org/2000/svg" width="146" height="146" viewBox="0 0 146 146" fill="none"><circle cx="73" cy="73" r="54.5" stroke="url(#paint0_linear_92_84)" stroke-opacity="0.6"></circle><circle cx="73" cy="73" r="72.5" stroke="url(#paint1_linear_92_84)" stroke-opacity="0.6"></circle><circle cx="73" cy="73" r="36.5" stroke="url(#paint2_linear_92_84)" stroke-opacity="0.4"></circle><path d="M81.5 73C82.6272 73 83.7082 72.5523 84.5052 71.7552C85.3022 70.9582 85.75 69.8772 85.75 68.75V65.9167C85.75 64.7895 85.3022 63.7085 84.5052 62.9115C83.7082 62.1145 82.6272 61.6667 81.5 61.6667H64.5C63.3728 61.6667 62.2918 62.1145 61.4948 62.9115C60.6978 63.7085 60.25 64.7895 60.25 65.9167V68.75C60.25 69.8772 60.6978 70.9582 61.4948 71.7552C62.2918 72.5523 63.3728 73 64.5 73M81.5 73H64.5M81.5 73C82.6272 73 83.7082 73.4478 84.5052 74.2448C85.3022 75.0418 85.75 76.1228 85.75 77.25V80.0834C85.75 81.2105 85.3022 82.2915 84.5052 83.0886C83.7082 83.8856 82.6272 84.3334 81.5 84.3334H64.5C63.3728 84.3334 62.2918 83.8856 61.4948 83.0886C60.6978 82.2915 60.25 81.2105 60.25 80.0834V77.25C60.25 76.1228 60.6978 75.0418 61.4948 74.2448C62.2918 73.4478 63.3728 73 64.5 73M65.9167 67.3334V67.3475M65.9167 78.6667V78.6809" stroke="url(#paint3_linear_92_84)" stroke-width="2" stroke-linecap="round" stroke-linejoin="round"></path><defs><linearGradient id="paint0_linear_92_84" x1="73" y1="18" x2="73" y2="102.73" gradientUnits="userSpaceOnUse"><stop stop-color="white" stop-opacity="0.6"></stop><stop offset="1" stop-color="white" stop-opacity="0"></stop></linearGradient><linearGradient id="paint1_linear_92_84" x1="73" y1="0" x2="73" y2="112.459" gradientUnits="userSpaceOnUse"><stop stop-color="white" stop-opacity="0.6"></stop><stop offset="1" stop-color="white" stop-opacity="0"></stop></linearGradient><linearGradient id="paint2_linear_92_84" x1="73" y1="36" x2="73" y2="93" gradientUnits="userSpaceOnUse"><stop stop-color="white" stop-opacity="0.6"></stop><stop offset="1" stop-color="white" stop-opacity="0"></stop></linearGradient><linearGradient id="paint3_linear_92_84" x1="73" y1="61.6667" x2="73" y2="84.3334" gradientUnits="userSpaceOnUse"><stop stop-color="#C2C2C2"></stop><stop offset="1" stop-color="#757575"></stop></linearGradient></defs></svg>