<svg xmlns="http://www.w3.org/2000/svg" width="146" height="146" viewBox="0 0 146 146" fill="none"><circle cx="73" cy="73" r="54.5" stroke="url(#paint0_linear_63_2797)" stroke-opacity="0.6"></circle><circle cx="73" cy="73" r="72.5" stroke="url(#paint1_linear_63_2797)" stroke-opacity="0.6"></circle><circle cx="73" cy="73" r="36.5" stroke="url(#paint2_linear_63_2797)" stroke-opacity="0.4"></circle><path d="M75.8335 84.3334H60.9585C60.3949 84.3334 59.8544 84.1095 59.4559 83.711C59.0574 83.3124 58.8335 82.7719 58.8335 82.2084V63.7917C58.8335 63.2281 59.0574 62.6876 59.4559 62.2891C59.8544 61.8906 60.3949 61.6667 60.9585 61.6667H85.0418C85.6054 61.6667 86.1459 61.8906 86.5444 62.2891C86.9429 62.6876 87.1668 63.2281 87.1668 63.7917V72.3335M83.6252 85.0417V76.5417M83.6252 76.5417L80.0835 80.0834M83.6252 76.5417L87.1668 80.0834" stroke="white" stroke-opacity="0.8" stroke-width="2" stroke-linecap="round" stroke-linejoin="round"></path><path d="M58.8335 63.7917C58.8335 63.2281 59.0574 62.6876 59.4559 62.2891C59.8544 61.8906 60.3949 61.6667 60.9585 61.6667H85.0418C85.6054 61.6667 86.1459 61.8906 86.5444 62.2891C86.9429 62.6876 87.1668 63.2281 87.1668 63.7917V70.1667H58.8335V63.7917Z" stroke="white" stroke-opacity="0.8" stroke-width="2"></path><path d="M61.6667 65.9167C61.6667 65.1343 62.3009 64.5 63.0833 64.5C63.8657 64.5 64.5 65.1343 64.5 65.9167C64.5 66.6991 63.8657 67.3334 63.0833 67.3334C62.3009 67.3334 61.6667 66.6991 61.6667 65.9167Z" fill="white" fill-opacity="0.8"></path><path d="M65.9167 65.9167C65.9167 65.1343 66.5509 64.5 67.3333 64.5C68.1157 64.5 68.75 65.1343 68.75 65.9167C68.75 66.6991 68.1157 67.3334 67.3333 67.3334C66.5509 67.3334 65.9167 66.6991 65.9167 65.9167Z" fill="white" fill-opacity="0.8"></path><defs><linearGradient id="paint0_linear_63_2797" x1="73" y1="18" x2="73" y2="102.73" gradientUnits="userSpaceOnUse"><stop stop-color="white" stop-opacity="0.6"></stop><stop offset="1" stop-color="white" stop-opacity="0"></stop></linearGradient><linearGradient id="paint1_linear_63_2797" x1="73" y1="0" x2="73" y2="112.459" gradientUnits="userSpaceOnUse"><stop stop-color="white" stop-opacity="0.6"></stop><stop offset="1" stop-color="white" stop-opacity="0"></stop></linearGradient><linearGradient id="paint2_linear_63_2797" x1="73" y1="36" x2="73" y2="93" gradientUnits="userSpaceOnUse"><stop stop-color="white" stop-opacity="0.6"></stop><stop offset="1" stop-color="white" stop-opacity="0"></stop></linearGradient></defs></svg>