<svg xmlns="http://www.w3.org/2000/svg" width="146" height="146" viewBox="0 0 146 146" fill="none"><circle cx="73" cy="73" r="54.5" stroke="url(#paint0_linear_92_185)" stroke-opacity="0.6"></circle><circle cx="73" cy="73" r="72.5" stroke="url(#paint1_linear_92_185)" stroke-opacity="0.6"></circle><circle cx="73" cy="73" r="36.5" stroke="url(#paint2_linear_92_185)" stroke-opacity="0.4"></circle><g clip-path="url(#clip0_92_185)"><path d="M68.5119 58.992C66.6079 59.876 64.0239 60.828 62.7999 61.1L60.5559 61.576L61.0319 65.792C61.3039 68.308 62.2559 71.572 63.4799 74.088C65.7239 78.644 70.8239 83.88 72.9999 83.88C75.1759 83.88 80.2759 78.644 82.5199 74.088C83.7439 71.572 84.6959 68.308 84.9679 65.792L85.4439 61.576L83.1999 61.1C81.9759 60.828 79.3919 59.876 77.4879 58.992C75.5839 58.108 73.5439 57.36 72.9999 57.36C72.4559 57.36 70.4159 58.108 68.5119 58.992ZM77.4199 60.352C79.6639 61.236 82.0439 62.188 82.7919 62.392C83.8799 62.732 84.0159 63.276 83.6079 65.724C82.6559 71.64 81.0239 75.176 77.4879 78.916C75.5159 80.888 73.5439 82.52 72.9999 82.52C72.4559 82.52 70.4839 80.888 68.5119 78.916C64.9759 75.176 63.3439 71.64 62.3919 65.724C61.9839 63.276 62.1199 62.732 63.2079 62.392C63.9559 62.188 66.1999 61.304 68.2399 60.42C72.9999 58.448 72.5919 58.448 77.4199 60.352Z" fill="url(#paint3_linear_92_185)"></path><path d="M71.572 66.676C71.504 66.948 71.436 68.512 71.368 70.076C71.3 72.796 71.436 73 73 73C74.564 73 74.7 72.796 74.7 69.736C74.632 66.948 74.496 66.54 73.136 66.336C72.32 66.2 71.64 66.336 71.572 66.676Z" fill="url(#paint4_linear_92_185)"></path><path d="M56.476 70.008C55.456 71.028 56.068 73.068 57.564 73.612C58.38 73.952 59.672 74.836 60.352 75.652C61.1 76.4 62.12 77.08 62.664 77.08C63.48 77.08 63.276 76.604 61.984 75.176C60.964 74.156 60.08 72.592 59.944 71.64C59.74 69.94 57.564 68.92 56.476 70.008ZM58.72 71.64C58.72 71.98 58.448 72.32 58.04 72.32C57.7 72.32 57.36 71.98 57.36 71.64C57.36 71.232 57.7 70.96 58.04 70.96C58.448 70.96 58.72 71.232 58.72 71.64Z" fill="url(#paint5_linear_92_185)"></path><path d="M86.3959 70.008C86.1239 70.28 85.9199 71.096 85.9199 71.912C85.9199 72.66 85.1039 74.156 84.0839 75.176C82.7919 76.536 82.5879 77.08 83.3359 77.08C83.8799 77.08 84.8999 76.4 85.6479 75.652C86.3279 74.836 87.6199 73.952 88.5039 73.612C89.6599 73.204 89.9999 72.524 89.8639 71.436C89.6599 69.94 87.4159 68.988 86.3959 70.008ZM88.6399 71.64C88.6399 71.98 88.3679 72.32 87.9599 72.32C87.6199 72.32 87.2799 71.98 87.2799 71.64C87.2799 71.232 87.6199 70.96 87.9599 70.96C88.3679 70.96 88.6399 71.232 88.6399 71.64Z" fill="url(#paint6_linear_92_185)"></path><path d="M56.952 78.78C56.68 79.324 56.68 80.276 56.952 80.82C57.36 81.976 59.808 82.18 60.42 81.16C60.624 80.752 61.916 80.48 63.208 80.48C64.636 80.48 65.452 80.208 65.18 79.8C64.976 79.392 63.888 79.12 62.8 79.12C61.712 79.12 60.624 78.78 60.42 78.44C59.808 77.42 57.36 77.624 56.952 78.78ZM59.4 79.8C59.4 80.14 59.128 80.48 58.72 80.48C58.38 80.48 58.04 80.14 58.04 79.8C58.04 79.392 58.38 79.12 58.72 79.12C59.128 79.12 59.4 79.392 59.4 79.8Z" fill="url(#paint7_linear_92_185)"></path><path d="M85.5799 78.372C85.3759 78.78 84.2879 79.12 83.1999 79.12C82.1119 79.12 81.0239 79.392 80.8199 79.8C80.5479 80.208 81.2959 80.48 82.5199 80.48C83.6079 80.48 85.1719 80.82 85.8519 81.296C87.6199 82.384 89.4559 81.5 89.1839 79.664C88.9799 77.964 86.3959 77.148 85.5799 78.372ZM87.9599 79.8C87.9599 80.14 87.6879 80.48 87.2799 80.48C86.9399 80.48 86.5999 80.14 86.5999 79.8C86.5999 79.392 86.9399 79.12 87.2799 79.12C87.6879 79.12 87.9599 79.392 87.9599 79.8Z" fill="url(#paint8_linear_92_185)"></path><path d="M63.0719 83.268C62.3919 84.084 61.0999 84.968 60.2159 85.308C57.9719 86.192 58.3799 88.98 60.7599 88.98C62.0519 88.98 62.5279 88.572 62.6639 87.28C63.0039 84.968 64.7039 83.2 66.6759 83.2C67.6279 83.2 68.1039 82.928 67.8999 82.52C67.1519 81.364 64.4319 81.772 63.0719 83.268ZM61.4399 87.28C61.4399 87.62 61.1679 87.96 60.7599 87.96C60.4199 87.96 60.0799 87.62 60.0799 87.28C60.0799 86.872 60.4199 86.6 60.7599 86.6C61.1679 86.6 61.4399 86.872 61.4399 87.28Z" fill="url(#paint9_linear_92_185)"></path><path d="M78.1001 82.52C77.8961 82.928 78.3721 83.2 79.3241 83.2C81.2961 83.2 82.9961 84.968 83.3361 87.28C83.4721 88.572 83.9481 88.98 85.2401 88.98C87.6201 88.98 88.0281 86.192 85.7841 85.308C84.9001 84.968 83.6081 84.084 82.9281 83.268C81.5681 81.772 78.8481 81.364 78.1001 82.52ZM85.9201 87.28C85.9201 87.62 85.6481 87.96 85.2401 87.96C84.9001 87.96 84.5601 87.62 84.5601 87.28C84.5601 86.872 84.9001 86.6 85.2401 86.6C85.6481 86.6 85.9201 86.872 85.9201 87.28Z" fill="url(#paint10_linear_92_185)"></path></g><defs><linearGradient id="paint0_linear_92_185" x1="73" y1="18" x2="73" y2="102.73" gradientUnits="userSpaceOnUse"><stop stop-color="white" stop-opacity="0.6"></stop><stop offset="1" stop-color="white" stop-opacity="0"></stop></linearGradient><linearGradient id="paint1_linear_92_185" x1="73" y1="0" x2="73" y2="112.459" gradientUnits="userSpaceOnUse"><stop stop-color="white" stop-opacity="0.6"></stop><stop offset="1" stop-color="white" stop-opacity="0"></stop></linearGradient><linearGradient id="paint2_linear_92_185" x1="73" y1="36" x2="73" y2="93" gradientUnits="userSpaceOnUse"><stop stop-color="white" stop-opacity="0.6"></stop><stop offset="1" stop-color="white" stop-opacity="0"></stop></linearGradient><linearGradient id="paint3_linear_92_185" x1="72.9999" y1="83.88" x2="72.9999" y2="57.36" gradientUnits="userSpaceOnUse"><stop stop-color="#757575"></stop><stop offset="1" stop-color="#C2C2C2"></stop></linearGradient><linearGradient id="paint4_linear_92_185" x1="73.0273" y1="73" x2="73.0273" y2="66.2839" gradientUnits="userSpaceOnUse"><stop stop-color="#757575"></stop><stop offset="1" stop-color="#C2C2C2"></stop></linearGradient><linearGradient id="paint5_linear_92_185" x1="59.5607" y1="77.08" x2="59.5607" y2="69.5583" gradientUnits="userSpaceOnUse"><stop stop-color="#757575"></stop><stop offset="1" stop-color="#C2C2C2"></stop></linearGradient><linearGradient id="paint6_linear_92_185" x1="86.3976" y1="77.08" x2="86.3976" y2="69.5833" gradientUnits="userSpaceOnUse"><stop stop-color="#757575"></stop><stop offset="1" stop-color="#C2C2C2"></stop></linearGradient><linearGradient id="paint7_linear_92_185" x1="60.99" y1="81.8187" x2="60.99" y2="77.7813" gradientUnits="userSpaceOnUse"><stop stop-color="#757575"></stop><stop offset="1" stop-color="#C2C2C2"></stop></linearGradient><linearGradient id="paint8_linear_92_185" x1="84.9875" y1="81.7703" x2="84.9875" y2="77.7851" gradientUnits="userSpaceOnUse"><stop stop-color="#757575"></stop><stop offset="1" stop-color="#C2C2C2"></stop></linearGradient><linearGradient id="paint9_linear_92_185" x1="63.341" y1="88.98" x2="63.341" y2="81.8528" gradientUnits="userSpaceOnUse"><stop stop-color="#757575"></stop><stop offset="1" stop-color="#C2C2C2"></stop></linearGradient><linearGradient id="paint10_linear_92_185" x1="82.6589" y1="88.98" x2="82.6589" y2="81.8528" gradientUnits="userSpaceOnUse"><stop stop-color="#757575"></stop><stop offset="1" stop-color="#C2C2C2"></stop></linearGradient><clipPath id="clip0_92_185"><rect width="34" height="34" fill="white" transform="translate(56 56)"></rect></clipPath></defs></svg>