<svg xmlns="http://www.w3.org/2000/svg" width="146" height="146" viewBox="0 0 146 146" fill="none"><circle cx="73" cy="73" r="54.5" stroke="url(#paint0_linear_92_101)" stroke-opacity="0.6"></circle><circle cx="73" cy="73" r="72.5" stroke="url(#paint1_linear_92_101)" stroke-opacity="0.6"></circle><circle cx="73" cy="73" r="36.5" stroke="url(#paint2_linear_92_101)" stroke-opacity="0.4"></circle><path d="M59.536 62.256C58.992 62.8 58.72 65.928 58.72 71.776C58.72 79.052 58.584 80.48 57.7 80.48C56.34 80.48 56.408 82.112 57.768 83.472C59.332 85.104 86.668 85.104 88.232 83.472C89.592 82.112 89.66 80.48 88.3 80.48C87.416 80.48 87.28 79.052 87.28 71.776C87.28 65.928 87.008 62.8 86.464 62.256C85.308 61.1 60.692 61.1 59.536 62.256ZM85.58 71.64V80.14H73H60.42L60.216 72.388C60.148 68.104 60.216 64.16 60.352 63.684C60.624 62.936 63.276 62.8 73.136 62.936L85.58 63.14V71.64ZM87.62 82.52C87.076 83.472 58.924 83.472 58.38 82.52C58.108 82.044 63.14 81.84 73 81.84C82.86 81.84 87.892 82.044 87.62 82.52Z" fill="url(#paint3_linear_92_101)"></path><path d="M73.408 66.948C71.844 71.912 71.164 77.42 72.184 76.808C72.932 76.332 74.7 67.016 74.156 66.472C73.884 66.2 73.612 66.404 73.408 66.948Z" fill="url(#paint4_linear_92_101)"></path><path d="M66.6078 69.94C65.5878 71.504 65.5878 71.776 66.6078 73.34C68.3078 75.992 69.7358 75.652 68.1038 73C67.4238 71.912 67.4238 71.368 68.1038 70.28C69.7358 67.628 68.3078 67.288 66.6078 69.94Z" fill="url(#paint5_linear_92_101)"></path><path d="M77.0801 68.58C77.0801 68.784 77.4881 69.532 77.8961 70.28C78.5761 71.368 78.5761 71.912 77.8961 73C76.2641 75.652 77.6921 75.992 79.3921 73.34C80.4121 71.776 80.4121 71.504 79.3921 69.94C78.3721 68.444 77.0801 67.628 77.0801 68.58Z" fill="url(#paint6_linear_92_101)"></path><defs><linearGradient id="paint0_linear_92_101" x1="73" y1="18" x2="73" y2="102.73" gradientUnits="userSpaceOnUse"><stop stop-color="white" stop-opacity="0.6"></stop><stop offset="1" stop-color="white" stop-opacity="0"></stop></linearGradient><linearGradient id="paint1_linear_92_101" x1="73" y1="0" x2="73" y2="112.459" gradientUnits="userSpaceOnUse"><stop stop-color="white" stop-opacity="0.6"></stop><stop offset="1" stop-color="white" stop-opacity="0"></stop></linearGradient><linearGradient id="paint2_linear_92_101" x1="73" y1="36" x2="73" y2="93" gradientUnits="userSpaceOnUse"><stop stop-color="white" stop-opacity="0.6"></stop><stop offset="1" stop-color="white" stop-opacity="0"></stop></linearGradient><linearGradient id="paint3_linear_92_101" x1="73" y1="84.696" x2="73" y2="61.389" gradientUnits="userSpaceOnUse"><stop stop-color="#757575"></stop><stop offset="1" stop-color="#C2C2C2"></stop></linearGradient><linearGradient id="paint4_linear_92_101" x1="72.9792" y1="76.8547" x2="72.9792" y2="66.352" gradientUnits="userSpaceOnUse"><stop stop-color="#757575"></stop><stop offset="1" stop-color="#C2C2C2"></stop></linearGradient><linearGradient id="paint5_linear_92_101" x1="67.3326" y1="75.1671" x2="67.3326" y2="68.1128" gradientUnits="userSpaceOnUse"><stop stop-color="#757575"></stop><stop offset="1" stop-color="#C2C2C2"></stop></linearGradient><linearGradient id="paint6_linear_92_101" x1="78.6186" y1="75.1671" x2="78.6186" y2="68.1711" gradientUnits="userSpaceOnUse"><stop stop-color="#757575"></stop><stop offset="1" stop-color="#C2C2C2"></stop></linearGradient></defs></svg>