<svg xmlns="http://www.w3.org/2000/svg" width="146" height="146" viewBox="0 0 146 146" fill="none"><circle cx="73" cy="73" r="54.5" stroke="url(#paint0_linear_92_122)" stroke-opacity="0.6"></circle><circle cx="73" cy="73" r="72.5" stroke="url(#paint1_linear_92_122)" stroke-opacity="0.6"></circle><circle cx="73" cy="73" r="36.5" stroke="url(#paint2_linear_92_122)" stroke-opacity="0.4"></circle><path d="M82.9167 71.5833V70.1667C82.9167 64.8244 82.9167 62.1526 81.2563 60.4937C79.596 58.8348 76.9256 58.8333 71.5833 58.8333C66.2411 58.8333 63.5693 58.8333 61.9103 60.4937C60.2514 62.154 60.25 64.8244 60.25 70.1667V75.8333C60.25 81.1756 60.25 83.8474 61.9103 85.5063C63.5707 87.1653 66.2411 87.1667 71.5833 87.1667" stroke="url(#paint3_linear_92_122)" stroke-width="1.5" stroke-linecap="round" stroke-linejoin="round"></path><path d="M85.7498 87.1667L83.3217 84.7385M65.9165 65.9167H77.2498M65.9165 71.5834H71.5832M84.1306 80.6911C84.1416 81.3359 84.0241 81.9765 83.785 82.5754C83.5458 83.1743 83.1898 83.7197 82.7377 84.1796C82.2856 84.6394 81.7464 85.0047 81.1517 85.2541C80.5569 85.5034 79.9185 85.6318 79.2735 85.6318C78.6286 85.6318 77.9902 85.5034 77.3954 85.2541C76.8007 85.0047 76.2615 84.6394 75.8094 84.1796C75.3573 83.7197 75.0013 83.1743 74.7621 82.5754C74.523 81.9765 74.4055 81.3359 74.4165 80.6911C74.4383 79.4173 74.9595 78.203 75.8681 77.3099C76.7766 76.4168 77.9996 75.9163 79.2735 75.9163C80.5475 75.9163 81.7705 76.4168 82.679 77.3099C83.5875 78.203 84.1088 79.4173 84.1306 80.6911Z" stroke="url(#paint4_linear_92_122)" stroke-width="1.5" stroke-linecap="round" stroke-linejoin="round"></path><defs><linearGradient id="paint0_linear_92_122" x1="73" y1="18" x2="73" y2="102.73" gradientUnits="userSpaceOnUse"><stop stop-color="white" stop-opacity="0.6"></stop><stop offset="1" stop-color="white" stop-opacity="0"></stop></linearGradient><linearGradient id="paint1_linear_92_122" x1="73" y1="0" x2="73" y2="112.459" gradientUnits="userSpaceOnUse"><stop stop-color="white" stop-opacity="0.6"></stop><stop offset="1" stop-color="white" stop-opacity="0"></stop></linearGradient><linearGradient id="paint2_linear_92_122" x1="73" y1="36" x2="73" y2="93" gradientUnits="userSpaceOnUse"><stop stop-color="white" stop-opacity="0.6"></stop><stop offset="1" stop-color="white" stop-opacity="0"></stop></linearGradient><linearGradient id="paint3_linear_92_122" x1="71.5833" y1="58.8333" x2="71.5833" y2="87.1667" gradientUnits="userSpaceOnUse"><stop stop-color="#C2C2C2"></stop><stop offset="1" stop-color="#757575"></stop></linearGradient><linearGradient id="paint4_linear_92_122" x1="75.8332" y1="65.9167" x2="75.8332" y2="87.1667" gradientUnits="userSpaceOnUse"><stop stop-color="#C2C2C2"></stop><stop offset="1" stop-color="#757575"></stop></linearGradient></defs></svg>